<svg preserveAspectRatio="none" width="100%" height="100%" overflow="visible" style="display: block;" viewBox="0 0 48 28" fill="none" xmlns="http://www.w3.org/2000/svg">
<path id="BOLT" fill-rule="evenodd" clip-rule="evenodd" d="M38.5804 21.054H33.5935V1.05864L38.5804 0.0108025V21.054ZM24.3911 16.1065C25.7709 16.1065 26.8791 15.0046 26.8791 13.6435V13.6327C26.8791 12.2716 25.7709 11.1589 24.3911 11.1589C23.0113 11.1589 21.9031 12.2608 21.9031 13.6327C21.9031 15.0046 23.0113 16.1065 24.3911 16.1065ZM24.3911 5.99537C28.6392 5.99537 32.0724 9.40895 32.0724 13.6435C32.0724 17.8565 28.6283 21.2809 24.3803 21.2809C20.1322 21.2809 16.699 17.8457 16.699 13.6327C16.699 9.41975 20.1431 5.99537 24.3911 5.99537ZM24.3911 23.0525C23.0113 23.0525 21.9031 24.1651 21.9031 25.5262C21.9031 26.8873 23.0113 28 24.3911 28C25.7709 28 26.8791 26.8981 26.8791 25.5262C26.8791 24.1543 25.7709 23.0525 24.3911 23.0525ZM8.72431 16.1065H8.81123C9.66953 16.0849 10.3431 15.3719 10.3214 14.5185C10.2997 13.6651 9.58262 12.9954 8.72431 13.017H4.98687V16.1065H8.72431ZM4.98687 4.95833V8.04784H7.75736C8.61566 8.04784 9.311 7.35648 9.311 6.50309C9.311 5.64969 8.61566 4.95833 7.75736 4.95833H4.98687ZM13.3092 9.92747C14.5478 11.1481 15.2431 12.8117 15.2431 14.5293C15.254 18.1265 12.3205 21.0432 8.71344 21.0432H0V0H7.74649C8.96333 0 10.1476 0.334877 11.1797 0.972222C14.2544 2.86265 15.2105 6.87037 13.3092 9.92747ZM47.9891 11.2238V6.26543H45.4903V2.48457L40.5143 3.53241V16.3441C40.5143 19.3688 42.4047 21.108 45.1861 21.2485C45.2078 21.2485 45.2512 21.2593 45.273 21.2593H45.3164C45.3816 21.2593 45.4359 21.2701 45.5011 21.2701H45.5663C46.4138 21.2701 47.2503 21.054 48 20.6543V17.0031C47.6415 17.1003 47.2612 17.1543 46.8918 17.1435C45.8923 17.1435 45.512 16.2793 45.512 15.1019V11.213L47.9891 11.2238Z" fill="var(--fill-0, white)"/>
</svg>
