<svg preserveAspectRatio="none" width="100%" height="100%" overflow="visible" style="display: block;" viewBox="0 0 60 30.0001" fill="none" xmlns="http://www.w3.org/2000/svg">
<g id="d">
<path id="Vector" d="M22.7842 0.3342L14.9268 18.8823H9.80488L5.93246 4.08838C5.69606 3.1749 5.49343 2.8407 4.78424 2.46194C3.61351 1.82696 1.68856 1.24768 0 0.880059L0.11257 0.34534H8.36398C9.41088 0.34534 10.3565 1.03602 10.6041 2.23914L12.6417 12.967L17.6848 0.3342H22.7842ZM42.8668 12.8333C42.8893 7.94281 36.0225 7.66431 36.0788 5.48088C36.0901 4.81248 36.7317 4.11066 38.1388 3.92128C38.8368 3.83216 40.7505 3.76532 42.9231 4.75678L43.7786 0.824359C42.6079 0.40104 41.1107 0 39.242 0C34.4465 0 31.0807 2.51764 31.0469 6.127C31.0131 8.80059 33.4559 10.2822 35.2908 11.1734C37.182 12.0869 37.8124 12.6662 37.8011 13.4794C37.7899 14.7271 36.2927 15.2729 34.8968 15.2952C32.454 15.3398 31.0469 14.6491 29.9099 14.1255L29.0319 18.1916C30.1689 18.704 32.2514 19.1496 34.424 19.1719C39.5122 19.1719 42.8443 16.6766 42.8668 12.8221M55.5197 18.8823H60L56.0826 0.3342H51.94C51.0056 0.3342 50.2289 0.868919 49.8799 1.69328L42.6079 18.8823H47.6961L48.7092 16.1196H54.9231L55.5084 18.8823H55.5197ZM50.1051 12.3097L52.6604 5.3472L54.1238 12.3097H50.1051ZM29.7073 0.3342L25.6998 18.8823H20.848L24.8555 0.3342H29.7073Z" fill="var(--fill-0, white)"/>
<path id="Vector_2" d="M26.2173 29.8886V23.9844H28.6151C29.1329 23.9844 29.5607 24.1181 29.8646 24.3855C30.1798 24.6528 30.3261 24.9982 30.3261 25.4438C30.3261 25.7891 30.2136 26.0676 29.9884 26.3015C29.7633 26.5355 29.4819 26.6692 29.1554 26.7249V26.7471C29.5832 26.7917 29.9321 26.9477 30.191 27.2039C30.45 27.4601 30.585 27.8054 30.585 28.2399C30.585 28.5518 30.5175 28.8303 30.3937 29.0865C30.2586 29.3427 30.0672 29.5321 29.797 29.6769C29.5269 29.8218 29.1892 29.8997 28.7614 29.8997H26.2061L26.2173 29.8886ZM28.4349 24.5637H26.9828V26.5132H28.4349C29.1779 26.5132 29.5381 26.1901 29.5381 25.5217C29.5381 25.1875 29.4481 24.9425 29.2567 24.7865C29.0653 24.6305 28.7952 24.5526 28.4349 24.5526V24.5637ZM28.5363 29.3093C28.9865 29.3093 29.313 29.2202 29.5044 29.0308C29.6957 28.8414 29.797 28.5629 29.797 28.1953C29.797 27.8277 29.6957 27.5381 29.4931 27.3487C29.2905 27.1593 28.964 27.0702 28.5363 27.0702H26.9715V29.2982H28.5363V29.3093Z" fill="var(--fill-0, white)"/>
<path id="Vector_3" d="M33.5907 29.3985C33.8271 29.3985 34.0522 29.3539 34.2549 29.2537C34.4575 29.1534 34.6151 29.0197 34.7389 28.8304C34.8628 28.641 34.919 28.4405 34.919 28.1954V25.4995H35.617V29.8887H34.9528V28.964H34.919C34.829 29.2091 34.7052 29.4096 34.5363 29.5656C34.3674 29.7216 34.1761 29.833 33.9735 29.8998C33.7708 29.9666 33.5569 30.0001 33.3543 30.0001C32.8703 30.0001 32.4988 29.8775 32.2174 29.6324C31.9359 29.3874 31.8008 28.9975 31.8008 28.485V25.5106H32.4988V28.3291C32.4988 28.6967 32.5776 28.9752 32.7352 29.1534C32.8928 29.3317 33.1855 29.4096 33.602 29.4096L33.5907 29.3985Z" fill="var(--fill-0, white)"/>
<path id="Vector_4" d="M36.788 26.6914C36.788 26.4018 36.8555 26.1567 37.0019 25.9673C37.1482 25.7779 37.3396 25.6331 37.5872 25.5329C37.8349 25.4326 38.1163 25.388 38.4315 25.388C38.7017 25.388 38.9493 25.4103 39.1632 25.466C39.3771 25.5217 39.5347 25.5663 39.6473 25.622L39.6811 26.2458H39.6585C39.5685 26.179 39.4559 26.1233 39.3096 26.0787C39.1632 26.0342 39.0169 25.9896 38.8593 25.9673C38.7017 25.9339 38.5441 25.9228 38.409 25.9228C38.1163 25.9228 37.8799 25.9673 37.6998 26.0564C37.5197 26.1456 37.4409 26.3238 37.4409 26.58C37.4409 26.736 37.4747 26.8585 37.5535 26.9476C37.6323 27.0368 37.7448 27.1147 37.8912 27.1704C38.0375 27.2261 38.2289 27.293 38.4428 27.3487C38.7355 27.4378 39.0056 27.5158 39.2308 27.6049C39.4559 27.6829 39.636 27.8054 39.7598 27.9502C39.8837 28.1062 39.9512 28.3179 39.9512 28.6186C39.9512 29.0642 39.8049 29.4096 39.5009 29.6435C39.197 29.8775 38.7917 30 38.2627 30C37.97 30 37.6886 29.9666 37.4296 29.8997C37.1707 29.8329 36.9568 29.7549 36.788 29.6435L36.7317 28.964H36.7542C36.9343 29.1199 37.1595 29.2425 37.4409 29.3316C37.7223 29.4096 37.9925 29.4541 38.2514 29.4541C38.6116 29.4541 38.8705 29.3984 39.0394 29.287C39.2083 29.1756 39.2871 28.9974 39.2871 28.7412C39.2871 28.5852 39.242 28.4627 39.1632 28.3736C39.0844 28.2844 38.9606 28.2176 38.803 28.1508C38.6454 28.0839 38.4428 28.0282 38.2064 27.9614C37.9362 27.8834 37.6998 27.8054 37.4859 27.7274C37.272 27.6495 37.1032 27.5269 36.9794 27.371C36.8555 27.215 36.788 26.9922 36.788 26.6914Z" fill="var(--fill-0, white)"/>
<path id="Vector_5" d="M40.8856 24.43C40.8856 24.3186 40.9306 24.2183 41.0094 24.1515C41.0882 24.0735 41.1895 24.0401 41.3246 24.0401C41.4597 24.0401 41.5497 24.0735 41.6398 24.1515C41.7186 24.2295 41.7636 24.3186 41.7636 24.43C41.7636 24.5414 41.7186 24.6417 41.6398 24.7196C41.561 24.7976 41.4484 24.831 41.3246 24.831C41.2008 24.831 41.0994 24.7976 41.0094 24.7196C40.9306 24.6417 40.8856 24.5525 40.8856 24.43ZM41.6735 25.4994V29.8886H40.9756V25.4994H41.6735Z" fill="var(--fill-0, white)"/>
<path id="Vector_6" d="M45.2758 25.388C45.7599 25.388 46.1313 25.5106 46.4015 25.7557C46.6717 26.0007 46.8068 26.3795 46.8068 26.8919V29.8886H46.1201V27.0925C46.1201 26.7248 46.0413 26.4463 45.8837 26.2681C45.7261 26.0899 45.4334 25.9896 45.0169 25.9896C44.7692 25.9896 44.5441 26.0342 44.3415 26.1344C44.1388 26.2347 43.9812 26.3684 43.8574 26.5577C43.7448 26.736 43.6773 26.9588 43.6773 27.2039V29.8886H42.9794V25.4994H43.6435V26.4352H43.6886C43.7674 26.1901 43.9024 25.9896 44.0713 25.8336C44.2402 25.6777 44.4315 25.5663 44.6454 25.4994C44.8593 25.4326 45.0619 25.3992 45.2645 25.3992L45.2758 25.388Z" fill="var(--fill-0, white)"/>
<path id="Vector_7" d="M50.1163 29.443C50.5103 29.443 50.8368 29.3984 51.0844 29.2982C51.3321 29.1979 51.5572 29.0754 51.7598 28.9083H51.7711L51.7036 29.5321C51.5685 29.6435 51.3659 29.7438 51.0957 29.844C50.8143 29.9443 50.4765 29.9889 50.06 29.9889C49.6098 29.9889 49.2158 29.8886 48.878 29.6992C48.5403 29.4987 48.2814 29.2313 48.0901 28.886C47.8987 28.5407 47.8086 28.1396 47.8086 27.694C47.8086 27.2484 47.8987 26.8474 48.0901 26.502C48.2702 26.1567 48.5291 25.8782 48.8555 25.6777C49.182 25.4772 49.5422 25.3769 49.9475 25.3769C50.409 25.3769 50.7917 25.4549 51.0844 25.622C51.3771 25.7891 51.591 26.0119 51.7261 26.3015C51.8612 26.5912 51.9287 26.9365 51.9287 27.3264C51.9287 27.3821 51.9287 27.4378 51.9287 27.5158C51.9287 27.5938 51.9174 27.6495 51.9062 27.7052H48.5516C48.5516 27.7052 48.5516 27.7052 48.5516 27.7163C48.5516 27.7163 48.5516 27.7163 48.5516 27.7274C48.5516 28.251 48.7092 28.6632 48.9906 28.964C49.272 29.2648 49.6548 29.4096 50.1388 29.4096L50.1163 29.443ZM49.9475 25.9228C49.5535 25.9228 49.2383 26.0453 49.0019 26.2792C48.7655 26.5132 48.6191 26.8474 48.5629 27.2707H51.242V27.1927C51.242 26.9365 51.197 26.7137 51.1295 26.5243C51.0507 26.3349 50.9156 26.1901 50.7355 26.0787C50.5441 25.9673 50.2964 25.9228 49.9587 25.9228H49.9475Z" fill="var(--fill-0, white)"/>
<path id="Vector_8" d="M52.7952 26.6914C52.7952 26.4018 52.8628 26.1567 53.0091 25.9673C53.1555 25.7779 53.3468 25.6331 53.5945 25.5328C53.8421 25.4326 54.1236 25.388 54.4388 25.388C54.7089 25.388 54.9566 25.4103 55.1705 25.466C55.3844 25.5217 55.542 25.5663 55.6545 25.622L55.6883 26.2458H55.6658C55.5757 26.179 55.4632 26.1233 55.3168 26.0787C55.1705 26.0341 55.0241 25.9896 54.8665 25.9673C54.7089 25.9339 54.5513 25.9228 54.4163 25.9228C54.1236 25.9228 53.8872 25.9673 53.7071 26.0564C53.5269 26.1455 53.4481 26.3238 53.4481 26.58C53.4481 26.736 53.4819 26.8585 53.5607 26.9476C53.6395 27.0367 53.7521 27.1147 53.8984 27.1704C54.0448 27.2261 54.2361 27.293 54.45 27.3487C54.7427 27.4378 55.0129 27.5158 55.238 27.6049C55.4632 27.6829 55.6433 27.8054 55.7671 27.9502C55.8909 28.1062 55.9585 28.3178 55.9585 28.6186C55.9585 29.0642 55.8121 29.4096 55.5082 29.6435C55.2042 29.8774 54.799 30 54.2699 30C53.9772 30 53.6958 29.9666 53.4369 29.8997C53.178 29.8329 52.9641 29.7549 52.7952 29.6435L52.739 28.964H52.7615C52.9416 29.1199 53.1667 29.2425 53.4481 29.3316C53.7296 29.4096 53.9997 29.4541 54.2587 29.4541C54.6189 29.4541 54.8778 29.3984 55.0466 29.287C55.2155 29.1756 55.2943 28.9974 55.2943 28.7412C55.2943 28.5852 55.2493 28.4627 55.1705 28.3735C55.0917 28.2844 54.9678 28.2176 54.8102 28.1507C54.6526 28.0839 54.45 28.0282 54.2136 27.9614C53.9435 27.8834 53.7071 27.8054 53.4932 27.7274C53.2793 27.6494 53.1104 27.5269 52.9866 27.3709C52.8628 27.215 52.7952 26.9922 52.7952 26.6914Z" fill="var(--fill-0, white)"/>
<path id="Vector_9" d="M56.8364 26.6914C56.8364 26.4018 56.9039 26.1567 57.0503 25.9673C57.1966 25.7779 57.388 25.6331 57.6356 25.5328C57.8833 25.4326 58.1647 25.388 58.4799 25.388C58.7501 25.388 58.9977 25.4103 59.2116 25.466C59.4255 25.5217 59.5831 25.5663 59.6957 25.622L59.7294 26.2458H59.7069C59.6169 26.179 59.5043 26.1233 59.358 26.0787C59.2116 26.0341 59.0653 25.9896 58.9077 25.9673C58.7501 25.9339 58.5925 25.9228 58.4574 25.9228C58.1647 25.9228 57.9283 25.9673 57.7482 26.0564C57.5681 26.1455 57.4893 26.3238 57.4893 26.58C57.4893 26.736 57.5231 26.8585 57.6019 26.9476C57.6807 27.0367 57.7932 27.1147 57.9396 27.1704C58.0859 27.2261 58.2773 27.293 58.4912 27.3487C58.7838 27.4378 59.054 27.5158 59.2792 27.6049C59.5043 27.6829 59.6844 27.8054 59.8082 27.9502C59.9321 28.1062 59.9996 28.3178 59.9996 28.6186C59.9996 29.0642 59.8533 29.4096 59.5493 29.6435C59.2454 29.8774 58.8401 30 58.311 30C58.0184 30 57.7369 29.9666 57.478 29.8997C57.2191 29.8329 57.0052 29.7549 56.8364 29.6435L56.7801 28.964H56.8026C56.9827 29.1199 57.2079 29.2425 57.4893 29.3316C57.7707 29.4096 58.0409 29.4541 58.2998 29.4541C58.66 29.4541 58.9189 29.3984 59.0878 29.287C59.2566 29.1756 59.3354 28.9974 59.3354 28.7412C59.3354 28.5852 59.2904 28.4627 59.2116 28.3735C59.1328 28.2844 59.009 28.2176 58.8514 28.1507C58.6938 28.0839 58.4912 28.0282 58.2548 27.9614C57.9846 27.8834 57.7482 27.8054 57.5343 27.7274C57.3204 27.6494 57.1516 27.5269 57.0277 27.3709C56.9039 27.215 56.8364 26.9922 56.8364 26.6914Z" fill="var(--fill-0, white)"/>
</g>
</svg>
